<svg width="24" height="25" viewBox="0 0 24 25" fill="none" xmlns="http://www.w3.org/2000/svg">
<path d="M21.9844 10.5C21.9473 9.18893 21.8226 8.35305 21.4026 7.63974C20.8052 6.62523 19.7294 6.06066 17.5777 4.93152L15.5777 3.88197C13.8221 2.96066 12.9443 2.5 12 2.5C11.0557 2.5 10.1779 2.96066 8.42229 3.88197L6.42229 4.93152C4.27063 6.06066 3.19479 6.62523 2.5974 7.63974C2 8.65425 2 9.91667 2 12.4415V12.5585C2 15.0833 2 16.3458 2.5974 17.3603C3.19479 18.3748 4.27063 18.9393 6.42229 20.0685L8.42229 21.118C10.1779 22.0393 11.0557 22.5 12 22.5C12.9443 22.5 13.8221 22.0393 15.5777 21.118L17.5777 20.0685C19.7294 18.9393 20.8052 18.3748 21.4026 17.3603C21.8226 16.6469 21.9473 15.8111 21.9844 14.5" stroke="#FA0B5B" stroke-width="1.5" stroke-linecap="round"/>
<path d="M21 8L17 10M17 10C17 10 16.6953 10.1524 16.5 10.25C14.7426 11.1287 12 12.5 12 12.5M17 10V13.5M17 10L7.5 5M12 12.5L3 8M12 12.5V22" stroke="#FA0B5B" stroke-width="1.5" stroke-linecap="round"/>
</svg>
