<svg viewBox="0 0 24 25" fill="none" xmlns="http://www.w3.org/2000/svg">
<path d="M3.75 18.835C3.75 18.4208 3.41421 18.085 3 18.085C2.58579 18.085 2.25 18.4208 2.25 18.835H3.75ZM2.25 14.835C2.25 15.2492 2.58579 15.585 3 15.585C3.41421 15.585 3.75 15.2492 3.75 14.835H2.25ZM7 9.58499C7.96401 9.58499 8.61157 9.58658 9.09461 9.65153C9.55607 9.71357 9.75357 9.82079 9.88388 9.95111L10.9445 8.89045C10.4891 8.43498 9.92227 8.24931 9.29448 8.1649C8.68826 8.0834 7.92161 8.08499 7 8.08499V9.58499ZM11.75 12.835C11.75 11.9134 11.7516 11.1467 11.6701 10.5405C11.5857 9.91272 11.4 9.34592 10.9445 8.89045L9.88388 9.95111C10.0142 10.0814 10.1214 10.2789 10.1835 10.7404C10.2484 11.2234 10.25 11.871 10.25 12.835H11.75ZM7 8.08499C6.07839 8.08499 5.31174 8.0834 4.70552 8.1649C4.07773 8.24931 3.51093 8.43498 3.05546 8.89045L4.11612 9.95111C4.24643 9.82079 4.44393 9.71357 4.90539 9.65153C5.38843 9.58658 6.03599 9.58499 7 9.58499V8.08499ZM3.75 12.835C3.75 11.871 3.75159 11.2234 3.81654 10.7404C3.87858 10.2789 3.9858 10.0814 4.11612 9.95111L3.05546 8.89045C2.59999 9.34592 2.41432 9.91272 2.32991 10.5405C2.24841 11.1467 2.25 11.9134 2.25 12.835H3.75ZM3.75 22.835V18.835H2.25V22.835H3.75ZM3.75 14.835V12.835H2.25V14.835H3.75Z" fill="#1C274C"/>
<path d="M7 22.835V16.835C7 14.9494 7 14.0066 7.58579 13.4208C8.17157 12.835 9.11438 12.835 11 12.835H13C14.8856 12.835 15.8284 12.835 16.4142 13.4208C16.8858 13.8923 16.9777 14.5952 16.9957 15.835M17 22.835V20.085" stroke-width="1.5" stroke-linecap="round"/>
<path d="M21 8.60694C21 7.26609 21 6.59567 20.6439 6.08175C20.2877 5.56782 19.66 5.33242 18.4045 4.86162C15.9492 3.9409 14.7216 3.48054 13.8608 4.07709C13 4.67363 13 5.98473 13 8.60694V12.8349M21 22.8349V12.8349" stroke-width="1.5" stroke-linecap="round"/>
<path d="M4 8.83499V7.33499C4 6.39218 4 5.92078 4.29289 5.62788C4.58579 5.33499 5.05719 5.33499 6 5.33499H8C8.94281 5.33499 9.41421 5.33499 9.70711 5.62788C10 5.92078 10 6.39218 10 7.33499V8.83499" stroke-width="1.5" stroke-linecap="round"/>
<path d="M7 4.83499V2.83499" stroke-width="1.5" stroke-linecap="round"/>
<path d="M22 22.835H2" stroke-width="1.5" stroke-linecap="round"/>
<path d="M10 15.835H10.5M14 15.835H12.5" stroke-width="1.5" stroke-linecap="round"/>
<path d="M10 18.835H14" stroke-width="1.5" stroke-linecap="round"/>
</svg>
