<svg viewBox="0 0 24 25" fill="none" xmlns="http://www.w3.org/2000/svg">
<path fill-rule="evenodd" clip-rule="evenodd" d="M12 3.25C6.89137 3.25 2.75 7.39137 2.75 12.5C2.75 17.6086 6.89137 21.75 12 21.75C17.1086 21.75 21.25 17.6086 21.25 12.5C21.25 7.39137 17.1086 3.25 12 3.25ZM1.25 12.5C1.25 6.56294 6.06294 1.75 12 1.75C17.9371 1.75 22.75 6.56294 22.75 12.5C22.75 18.4371 17.9371 23.25 12 23.25C6.06294 23.25 1.25 18.4371 1.25 12.5ZM12 7.75C12.4142 7.75 12.75 8.08579 12.75 8.5V12.1893L15.0303 14.4697C15.3232 14.7626 15.3232 15.2374 15.0303 15.5303C14.7374 15.8232 14.2626 15.8232 13.9697 15.5303L11.4697 13.0303C11.329 12.8897 11.25 12.6989 11.25 12.5V8.5C11.25 8.08579 11.5858 7.75 12 7.75Z" fill="#FA0B5B"/>
</svg>