<svg viewBox="0 0 22 16" fill="none" xmlns="http://www.w3.org/2000/svg">
<path d="M11.5068 13.692H7.2144C7.10237 14.0982 6.90438 14.4757 6.63383 14.7988C6.36328 15.1219 6.02648 15.3831 5.64623 15.5648C5.26597 15.7464 4.85114 15.8443 4.42979 15.8517C4.00844 15.8591 3.59041 15.776 3.20399 15.6078C2.81756 15.4397 2.47176 15.1905 2.18998 14.8772C1.9082 14.5638 1.69702 14.1936 1.57073 13.7916C1.44443 13.3895 1.40597 12.965 1.45795 12.5468C1.50993 12.1286 1.65113 11.7265 1.872 11.3676L0 11.364L0.00239997 9.924L4.3224 9.9336V9.9636H4.38C5.7804 9.9636 6.9516 10.9416 7.248 12.252H11.472C11.595 11.7138 11.8668 11.2209 12.2563 10.8297C12.6459 10.4384 13.1375 10.1645 13.6752 10.0392L16.5828 2.4168C16.6244 2.30783 16.6389 2.19038 16.6251 2.07456C16.6112 1.95874 16.5694 1.84801 16.5033 1.75191C16.4372 1.65581 16.3488 1.57722 16.2455 1.52288C16.1423 1.46855 16.0274 1.4401 15.9108 1.44H4.3224V0H15.912C16.2576 1.08032e-05 16.5981 0.082926 16.9049 0.241784C17.2118 0.400642 17.4761 0.630806 17.6756 0.912951C17.8751 1.1951 18.004 1.52099 18.0515 1.86326C18.0989 2.20554 18.0636 2.55421 17.9484 2.88H19.9608L21.6516 7.95L19.2192 13.6944L17.178 13.686C17.0069 14.3063 16.6371 14.8534 16.1254 15.2435C15.6136 15.6336 14.9881 15.8452 14.3447 15.8459C13.7012 15.8465 13.0753 15.6363 12.5627 15.2472C12.0502 14.8582 11.6792 14.3119 11.5068 13.692ZM17.208 12.246L18.2676 12.2508L20.1132 7.89L18.924 4.32H17.4L15.198 10.0908C16.1988 10.3944 16.974 11.2176 17.208 12.246ZM7.2024 2.874V4.314H0.00239997V2.874H7.2024ZM4.3224 5.7924V7.2324H1.4424V5.7924H4.3224ZM4.3812 14.406C4.77934 14.406 5.16118 14.2478 5.44271 13.9663C5.72424 13.6848 5.8824 13.3029 5.8824 12.9048C5.8824 12.5067 5.72424 12.1248 5.44271 11.8433C5.16118 11.5618 4.77934 11.4036 4.3812 11.4036C3.98306 11.4036 3.60122 11.5618 3.31969 11.8433C3.03816 12.1248 2.88 12.5067 2.88 12.9048C2.88 13.3029 3.03816 13.6848 3.31969 13.9663C3.60122 14.2478 3.98306 14.406 4.3812 14.406ZM14.3412 14.406C14.7393 14.406 15.1212 14.2478 15.4027 13.9663C15.6842 13.6848 15.8424 13.3029 15.8424 12.9048C15.8424 12.5067 15.6842 12.1248 15.4027 11.8433C15.1212 11.5618 14.7393 11.4036 14.3412 11.4036C13.9431 11.4036 13.5612 11.5618 13.2797 11.8433C12.9982 12.1248 12.84 12.5067 12.84 12.9048C12.84 13.3029 12.9982 13.6848 13.2797 13.9663C13.5612 14.2478 13.9431 14.406 14.3412 14.406Z" />
</svg>
