<svg viewBox="0 0 21 21" fill="none" xmlns="http://www.w3.org/2000/svg">
<path d="M10.5 13V15.5" stroke-width="1.5" stroke-linecap="round"/>
<path d="M18.8334 10.6699V11.9375C18.8334 15.1882 18.8334 16.8136 17.8571 17.8234C16.8808 18.8333 15.3094 18.8333 12.1667 18.8333H8.83342C5.69071 18.8333 4.11937 18.8333 3.14306 17.8234C2.16675 16.8136 2.16675 15.1882 2.16675 11.9375V10.6699C2.16675 8.7629 2.16675 7.80939 2.59941 7.01894C3.03208 6.2285 3.82254 5.73791 5.40344 4.75676L7.07011 3.72238C8.74124 2.68523 9.57683 2.16666 10.5001 2.16666C11.4233 2.16666 12.2589 2.68523 13.9301 3.72238L15.5967 4.75676C17.1777 5.73791 17.9681 6.2285 18.4007 7.01894" stroke-width="1.5" stroke-linecap="round"/>
</svg>
