<svg viewBox="0 0 25 25" fill="none" xmlns="http://www.w3.org/2000/svg">
<path d="M9.5 11.5C10.6046 11.5 11.5 10.6046 11.5 9.5C11.5 8.39543 10.6046 7.5 9.5 7.5C8.39543 7.5 7.5 8.39543 7.5 9.5C7.5 10.6046 8.39543 11.5 9.5 11.5Z" stroke-width="1.5"/>
<path d="M13.5 15.5C13.5 16.6046 13.5 17.5 9.5 17.5C5.5 17.5 5.5 16.6046 5.5 15.5C5.5 14.3954 7.29086 13.5 9.5 13.5C11.7091 13.5 13.5 14.3954 13.5 15.5Z" stroke-width="1.5"/>
<path d="M22.5 12.5C22.5 16.2712 22.5 18.1569 21.3284 19.3284C20.1569 20.5 18.2712 20.5 14.5 20.5H10.5C6.72876 20.5 4.84315 20.5 3.67157 19.3284C2.5 18.1569 2.5 16.2712 2.5 12.5C2.5 8.72876 2.5 6.84315 3.67157 5.67157C4.84315 4.5 6.72876 4.5 10.5 4.5H14.5C18.2712 4.5 20.1569 4.5 21.3284 5.67157C21.798 6.14118 22.0794 6.7255 22.248 7.5" stroke-width="1.5" stroke-linecap="round"/>
<path d="M19.5 12.5H15.5" stroke-width="1.5" stroke-linecap="round"/>
<path d="M19.5 9.5H14.5" stroke-width="1.5" stroke-linecap="round"/>
<path d="M19.5 15.5H16.5" stroke-width="1.5" stroke-linecap="round"/>
</svg>
