<svg viewBox="0 0 21 21" fill="none" xmlns="http://www.w3.org/2000/svg">
<path d="M2.16675 11.3334H4.8003C5.55461 11.3334 5.93177 11.3334 6.26328 11.4859C6.59481 11.6383 6.84026 11.9247 7.33116 12.4974L7.83567 13.086C8.32657 13.6587 8.57202 13.9451 8.90358 14.0975C9.23508 14.25 9.61225 14.25 10.3665 14.25H10.6337C11.3879 14.25 11.7651 14.25 12.0966 14.0975C12.4282 13.9451 12.6736 13.6587 13.1645 13.086L13.669 12.4974C14.1599 11.9247 14.4053 11.6383 14.7369 11.4859C15.0684 11.3334 15.4456 11.3334 16.1998 11.3334H18.8334" stroke-width="1.5" stroke-linecap="round"/>
<path d="M18.8334 10.5C18.8334 14.4284 18.8334 16.3926 17.613 17.6129C16.3927 18.8334 14.4284 18.8334 10.5001 18.8334C6.57171 18.8334 4.60752 18.8334 3.38714 17.6129C2.16675 16.3926 2.16675 14.4284 2.16675 10.5C2.16675 6.57165 2.16675 4.60746 3.38714 3.38708C4.60752 2.16669 6.57171 2.16669 10.5001 2.16669C14.4284 2.16669 16.3927 2.16669 17.613 3.38708C18.4245 4.19853 18.6964 5.33881 18.7875 7.16669" stroke-width="1.5" stroke-linecap="round"/>
</svg>
