<svg viewBox="0 0 24 25" fill="none" xmlns="http://www.w3.org/2000/svg">
<path d="M22 3.354H2" stroke-width="1.5" stroke-linecap="round"/>
<path d="M22 21.354H18M2 21.354H14" stroke-width="1.5" stroke-linecap="round"/>
<path d="M9 8.354H8C6.11438 8.354 5.17157 8.354 4.58579 8.93979C4 9.52557 4 10.4684 4 12.354C4 14.2396 4 15.1824 4.58579 15.7682C5.17157 16.354 6.11438 16.354 8 16.354H16C17.8856 16.354 18.8284 16.354 19.4142 15.7682C20 15.1824 20 14.2396 20 12.354C20 10.4684 20 9.52557 19.4142 8.93979C18.8284 8.354 17.8856 8.354 16 8.354H13" stroke-width="1.5" stroke-linecap="round"/>
</svg>
