<svg viewBox="0 0 24 25" fill="none" xmlns="http://www.w3.org/2000/svg">
<g clip-path="url(#clip0_742_696)">
<path d="M6.72009 17.1398C7.25029 16.9853 7.80543 17.2897 7.96003 17.82C8.11462 18.3502 7.81012 18.9053 7.27991 19.0599C6.77914 19.2059 6.41926 19.3607 6.18866 19.4996C6.42735 19.6433 6.80251 19.803 7.32497 19.9523C8.47958 20.2822 10.1328 20.4996 12 20.4996C13.8672 20.4996 15.5204 20.2822 16.675 19.9523C17.1975 19.803 17.5726 19.6433 17.8113 19.4996C17.5807 19.3607 17.2209 19.2059 16.7201 19.0599C16.1899 18.9053 15.8854 18.3502 16.04 17.82C16.1946 17.2897 16.7497 16.9853 17.2799 17.1398C17.948 17.3346 18.5608 17.5847 19.0293 17.9058C19.4655 18.2048 20 18.7259 20 19.4996C20 20.2832 19.4522 20.8078 19.0097 21.1067C18.5322 21.4292 17.9071 21.6803 17.2245 21.8753C15.8456 22.2693 13.9988 22.4996 12 22.4996C10.0012 22.4996 8.15442 22.2693 6.77553 21.8753C6.09289 21.6803 5.46776 21.4292 4.99033 21.1067C4.54781 20.8078 4 20.2832 4 19.4996C4 18.7259 4.53454 18.2048 4.97068 17.9058C5.43918 17.5847 6.05202 17.3346 6.72009 17.1398ZM12 2.5C16.1421 2.5 19.5 5.8579 19.5 10C19.5 12.5679 18.1005 14.6564 16.6502 16.1391C16.0353 16.7678 15.3907 17.309 14.797 17.7551C14.2033 18.2012 12.8455 19.0365 12.8455 19.0365C12.3176 19.3347 11.6824 19.3347 11.1545 19.0365C10.6266 18.7383 9.79666 18.2012 9.20296 17.7551C8.60926 17.309 7.96472 16.7678 7.34978 16.1391C5.89953 14.6564 4.5 12.5679 4.5 10C4.5 5.8579 7.85786 2.5 12 2.5ZM12 4.5C8.96243 4.5 6.5 6.9624 6.5 10C6.5 11.8165 7.49565 13.428 8.77956 14.7406C9.74554 15.7282 10.8105 16.4795 11.5475 16.9423C11.8203 17.108 11.9711 17.1992 12 17.216L12.4525 16.9423C13.1895 16.4795 14.2544 15.7282 15.2204 14.7406C16.5044 13.428 17.5 11.8165 17.5 10C17.5 6.9624 15.0376 4.5 12 4.5ZM12 7C13.6569 7 15 8.3431 15 10C15 11.6569 13.6569 13 12 13C10.3431 13 9 11.6569 9 10C9 8.3431 10.3431 7 12 7ZM12 9C11.4477 9 11 9.4477 11 10C11 10.5523 11.4477 11 12 11C12.5523 11 13 10.5523 13 10C13 9.4477 12.5523 9 12 9Z" fill="#FA0B5B"/>
</g>
<defs>
<clipPath id="clip0_742_696">
<rect width="24" height="24" fill="white" transform="translate(0 0.5)"/>
</clipPath>
</defs>
</svg>
