<svg viewBox="0 0 283 257" fill="none" xmlns="http://www.w3.org/2000/svg">
<path d="M202.312 159.044C197.765 158.135 194.459 155.985 192.392 152.596C190.325 149.124 189.292 145.239 189.292 140.94C189.292 140.444 189.292 139.948 189.292 139.452C189.292 138.956 189.333 138.46 189.416 137.964C190.325 130.772 192.681 124.655 196.484 119.612C200.287 114.487 204.999 110.312 210.62 107.088C216.324 103.781 222.441 101.301 228.972 99.6479C235.585 97.9119 242.075 96.8786 248.44 96.5479C248.853 96.4653 249.267 96.4239 249.68 96.4239C250.093 96.4239 250.507 96.4239 250.92 96.4239C254.723 96.4239 258.484 96.6719 262.204 97.1679C265.924 97.6639 269.685 97.9119 273.488 97.9119C274.149 97.9119 274.769 97.9119 275.348 97.9119C275.927 97.9119 276.505 97.8706 277.084 97.7879C278.076 97.7053 278.861 97.5813 279.44 97.4159C280.019 97.2506 280.721 96.8786 281.548 96.2999C281.631 96.2999 281.672 96.2999 281.672 96.2999C281.755 96.2173 281.837 96.1759 281.92 96.1759C282.168 96.1759 282.292 96.3413 282.292 96.6719C282.292 97.0853 282.044 97.5399 281.548 98.0359C279.481 99.8546 277.539 101.301 275.72 102.376C273.901 103.451 271.545 103.988 268.652 103.988C268.156 103.988 267.619 103.988 267.04 103.988C266.544 103.905 266.048 103.823 265.552 103.74C261.584 103.244 257.616 102.913 253.648 102.748C249.68 102.583 245.712 102.5 241.744 102.5C237.28 102.5 232.857 102.789 228.476 103.368C224.095 103.947 219.92 105.104 215.952 106.84C212.067 108.493 208.512 111.097 205.288 114.652C202.229 118.041 199.749 122.216 197.848 127.176C195.947 132.136 194.996 136.931 194.996 141.56C194.996 144.949 195.533 147.967 196.608 150.612C197.765 153.257 199.791 155.531 202.684 157.432C203.18 157.763 203.428 158.093 203.428 158.424C203.428 158.837 203.18 159.044 202.684 159.044H202.312ZM156.928 225.632C154.117 225.632 151.183 225.301 148.124 224.64C145.148 223.979 142.379 222.904 139.816 221.416C137.253 219.928 135.187 217.985 133.616 215.588C132.045 213.191 131.26 210.297 131.26 206.908C131.26 205.172 131.549 203.436 132.128 201.7C132.624 200.047 133.285 198.435 134.112 196.864C136.427 192.896 139.568 189.548 143.536 186.82C147.421 184.009 151.637 181.695 156.184 179.876C160.813 177.975 165.236 176.528 169.452 175.536C174.908 174.213 180.488 173.387 186.192 173.056C191.979 172.725 197.641 172.56 203.18 172.56H209.132C209.793 172.56 210.124 172.767 210.124 173.18C210.124 174.007 209.711 174.503 208.884 174.668H205.66C204.172 174.668 202.684 174.709 201.196 174.792C199.791 174.792 198.344 174.833 196.856 174.916C192.475 175.081 188.052 175.412 183.588 175.908C179.124 176.321 174.743 177.065 170.444 178.14C167.468 178.884 164.12 180 160.4 181.488C156.68 182.893 153.125 184.712 149.736 186.944C146.429 189.093 143.701 191.615 141.552 194.508C139.32 197.484 138.204 200.873 138.204 204.676C138.204 208.644 139.403 211.909 141.8 214.472C144.197 217.035 147.132 218.895 150.604 220.052C154.159 221.292 157.631 221.912 161.02 221.912C163.417 221.912 165.732 221.705 167.964 221.292C170.279 220.879 172.552 220.341 174.784 219.68C179.827 218.109 184.828 215.423 189.788 211.62C194.748 207.817 199.46 203.395 203.924 198.352C208.388 193.392 212.397 188.267 215.952 182.976C219.589 177.685 222.565 172.767 224.88 168.22C228.765 160.615 232.568 152.968 236.288 145.28C240.091 137.509 243.893 129.78 247.696 122.092C247.779 121.927 248.068 121.307 248.564 120.232C249.143 119.157 249.763 117.959 250.424 116.636C251.085 115.231 251.664 114.032 252.16 113.04C252.656 112.048 252.945 111.511 253.028 111.428C254.599 109.775 256.128 108.989 257.616 109.072C259.187 109.072 260.923 108.948 262.824 108.7C264.395 108.535 265.304 108.204 265.552 107.708C265.883 107.129 266.296 106.84 266.792 106.84C267.288 106.84 267.536 107.005 267.536 107.336C267.536 107.501 267.453 107.749 267.288 108.08C264.973 111.387 262.824 114.817 260.84 118.372C258.856 121.927 256.831 125.44 254.764 128.912C251.705 134.451 248.605 139.948 245.464 145.404C242.323 150.86 239.181 156.357 236.04 161.896C234.221 165.12 232.403 168.344 230.584 171.568C228.765 174.792 226.864 177.975 224.88 181.116C220.581 188.06 215.373 194.591 209.256 200.708C203.221 206.908 196.484 212.157 189.044 216.456C181.687 220.755 173.833 223.565 165.484 224.888C162.673 225.384 159.821 225.632 156.928 225.632ZM224.756 159.664C224.508 159.664 224.384 159.499 224.384 159.168C224.384 158.92 224.384 158.672 224.384 158.424C224.467 158.176 224.549 157.928 224.632 157.68C225.541 154.043 225.996 150.488 225.996 147.016C225.996 146.355 225.955 145.487 225.872 144.412C225.789 143.337 225.541 142.345 225.128 141.436C224.797 140.527 224.177 140.072 223.268 140.072C222.441 140.072 221.904 140.32 221.656 140.816C221.491 141.229 221.243 141.436 220.912 141.436C220.747 141.436 220.664 141.353 220.664 141.188L220.788 140.692C221.449 139.452 222.359 138.377 223.516 137.468C224.756 136.559 226.079 136.104 227.484 136.104C229.22 136.104 230.336 136.807 230.832 138.212C231.411 139.535 231.7 140.899 231.7 142.304C231.7 144.867 231.08 147.512 229.84 150.24C228.683 152.968 227.525 155.489 226.368 157.804C226.285 158.052 226.037 158.424 225.624 158.92C225.293 159.416 225.004 159.664 224.756 159.664Z" fill="#FA0B5B"/>
<path d="M27.42 164.652C24.5267 164.652 21.592 164.28 18.616 163.536C15.64 162.792 12.912 161.635 10.432 160.064C7.952 158.576 5.92667 156.633 4.356 154.236C2.868 151.839 2.124 148.945 2.124 145.556C2.124 143.324 2.53733 140.844 3.364 138.116C4.27333 135.388 5.596 133.28 7.332 131.792C7.66267 131.461 7.99333 131.296 8.324 131.296C8.572 131.296 8.696 131.42 8.696 131.668C8.696 131.999 8.2 132.701 7.208 133.776C6.29867 134.851 5.844 136.38 5.844 138.364V139.48C6.588 144.275 8.448 148.201 11.424 151.26C14.4 154.319 17.996 156.551 22.212 157.956C26.428 159.361 30.7267 160.064 35.108 160.064C37.2573 160.064 39.4893 159.899 41.804 159.568C44.1187 159.237 46.268 158.659 48.252 157.832C54.1213 155.352 59.908 151.549 65.612 146.424C71.3987 141.381 76.9787 135.512 82.352 128.816C87.7253 122.12 92.768 115.135 97.48 107.86C102.275 100.585 106.656 93.4759 110.624 86.5319C114.675 79.5879 118.229 73.3879 121.288 67.9319C115.749 66.1959 110.169 64.4599 104.548 62.7239C99.0093 60.9053 93.388 59.4173 87.684 58.2599C81.98 57.0199 76.152 56.3999 70.2 56.3999C65.24 56.3999 60.1147 57.0613 54.824 58.3839C49.5333 59.6239 44.6147 61.5666 40.068 64.2119C35.604 66.8573 31.9667 70.2879 29.156 74.5039C26.428 78.7199 25.064 83.7626 25.064 89.6319C25.064 91.1199 25.1467 92.8559 25.312 94.8399C25.56 96.7413 25.9733 98.6013 26.552 100.42C27.2133 102.239 28.164 103.727 29.404 104.884C30.644 106.041 32.2973 106.62 34.364 106.62C34.5293 106.62 34.6947 106.661 34.86 106.744C35.108 106.744 35.232 106.868 35.232 107.116C35.232 107.364 34.984 107.529 34.488 107.612C34.0747 107.695 33.7853 107.736 33.62 107.736C31.884 107.736 30.1067 107.323 28.288 106.496C25.2293 105.173 22.832 103.272 21.096 100.792C19.4427 98.3119 18.616 95.4186 18.616 92.1119C18.616 86.2426 19.9387 81.1173 22.584 76.7359C25.2293 72.3546 28.7427 68.5933 33.124 65.4519C37.5053 62.3106 42.3413 59.7893 47.632 57.8879C52.9227 55.9039 58.296 54.4573 63.752 53.5479C69.208 52.6386 74.292 52.1839 79.004 52.1839C86.8573 52.1839 94.5867 53.1759 102.192 55.1599C109.88 57.0613 117.485 59.0453 125.008 61.1119C125.587 59.6239 126.703 58.7973 128.356 58.6319C130.092 58.4666 131.621 58.3839 132.944 58.3839C134.597 58.3839 135.672 58.0533 136.168 57.3919C136.664 56.6479 137.201 56.2759 137.78 56.2759C138.276 56.2759 138.524 56.4826 138.524 56.8959C138.524 57.0613 138.193 57.5986 137.532 58.5079C136.953 59.4173 136.292 60.3679 135.548 61.3599C134.887 62.2693 134.432 62.8893 134.184 63.2199H134.308C134.391 63.2199 134.432 63.2613 134.432 63.3439C135.424 63.5093 136.416 63.6746 137.408 63.8399C138.4 64.0053 139.392 64.0879 140.384 64.0879C141.541 64.0879 142.409 63.9226 142.988 63.5919C143.649 63.2613 144.104 63.0959 144.352 63.0959C144.6 63.0959 144.724 63.2199 144.724 63.4679C144.724 63.7986 144.6 64.0879 144.352 64.3359C144.187 64.5013 143.98 64.6666 143.732 64.8319C141.748 66.3199 140.053 67.4773 138.648 68.3039C137.325 69.1306 135.341 69.6266 132.696 69.7919C131.539 74.1733 130.423 78.5959 129.348 83.0599C128.356 87.5239 127.364 91.9879 126.372 96.4519C125.711 99.6759 125.091 102.983 124.512 106.372C124.016 109.679 123.768 113.027 123.768 116.416C123.768 117.491 123.851 118.855 124.016 120.508C124.181 122.079 124.636 123.484 125.38 124.724C126.124 125.881 127.281 126.46 128.852 126.46C130.671 126.46 132.82 125.592 135.3 123.856C137.863 122.12 140.508 120.012 143.236 117.532C145.964 115.052 148.444 112.613 150.676 110.216C152.991 107.819 154.809 105.959 156.132 104.636C162.249 98.4359 168.201 92.0706 173.988 85.5399C179.775 78.9266 185.231 72.1066 190.356 65.0799C190.935 64.3359 191.761 63.1786 192.836 61.6079C193.911 59.9546 195.068 58.4666 196.308 57.1439C197.548 55.7386 198.623 55.0359 199.532 55.0359C199.945 55.0359 200.689 55.2426 201.764 55.6559C202.921 55.9866 203.996 56.4413 204.988 57.0199C205.98 57.5159 206.517 58.0119 206.6 58.5079C206.6 58.5906 206.559 58.6733 206.476 58.7559C206.476 58.7559 206.476 58.7973 206.476 58.8799L201.516 64.4599C200.193 66.0306 198.912 67.6839 197.672 69.4199C196.432 71.0733 195.192 72.7266 193.952 74.3799C188.496 82.1506 183.536 90.2519 179.072 98.6839C174.608 107.116 170.557 115.713 166.92 124.476C166.589 125.303 166.176 126.336 165.68 127.576C165.184 128.816 164.936 129.932 164.936 130.924C164.936 131.999 165.391 132.536 166.3 132.536C167.044 132.536 167.871 132.247 168.78 131.668C169.772 131.089 170.557 130.593 171.136 130.18C174.029 128.196 176.923 126.295 179.816 124.476C182.709 122.575 185.768 121.004 188.992 119.764C189.075 119.764 189.447 119.64 190.108 119.392C190.769 119.144 191.141 119.02 191.224 119.02C191.472 119.02 191.637 119.144 191.72 119.392C191.885 119.64 191.968 119.847 191.968 120.012C189.901 120.921 187.504 122.244 184.776 123.98C182.048 125.633 179.279 127.493 176.468 129.56C173.74 131.544 171.177 133.611 168.78 135.76C166.465 137.827 164.647 139.769 163.324 141.588C162.993 142.167 162.663 142.745 162.332 143.324C162.084 143.82 161.795 144.399 161.464 145.06C160.885 146.135 160.1 146.796 159.108 147.044C158.199 147.375 157.165 147.54 156.008 147.54C155.677 147.54 154.892 147.457 153.652 147.292C152.495 147.127 151.379 146.879 150.304 146.548C149.229 146.3 148.692 145.928 148.692 145.432C148.692 145.019 148.816 144.357 149.064 143.448C149.312 142.539 149.56 141.629 149.808 140.72C150.139 139.811 150.345 139.191 150.428 138.86C152.081 134.231 154.148 129.601 156.628 124.972C159.108 120.343 161.795 115.796 164.688 111.332C167.581 106.868 170.351 102.611 172.996 98.5599C174.071 96.9066 175.145 95.2946 176.22 93.7239C177.377 92.0706 178.452 90.4173 179.444 88.7639C180.188 87.6066 180.56 86.4906 180.56 85.4159C180.56 85.2506 180.519 85.0853 180.436 84.9199C180.436 84.6719 180.353 84.5479 180.188 84.5479C179.857 84.5479 179.568 84.7546 179.32 85.1679C177.667 87.0693 175.393 89.6319 172.5 92.8559C169.607 96.0799 166.383 99.5933 162.828 103.396C159.273 107.116 155.553 110.877 151.668 114.68C147.865 118.4 144.063 121.831 140.26 124.972C136.54 128.113 133.068 130.635 129.844 132.536C126.62 134.437 123.851 135.388 121.536 135.388C119.469 135.388 117.94 134.685 116.948 133.28C115.956 131.875 115.295 130.221 114.964 128.32C114.716 126.336 114.592 124.559 114.592 122.988C114.592 118.937 115.005 114.473 115.832 109.596C116.659 104.719 117.651 99.8413 118.808 94.9639C120.048 90.0039 121.164 85.5399 122.156 81.5719C118.601 87.1933 114.84 93.1453 110.872 99.4279C106.904 105.628 102.688 111.828 98.224 118.028C93.76 124.228 88.9653 130.139 83.84 135.76C78.7973 141.299 73.3413 146.217 67.472 150.516C61.6853 154.897 55.444 158.328 48.748 160.808C42.1347 163.371 35.0253 164.652 27.42 164.652ZM84.336 121.376C84.1707 121.376 84.0467 121.293 83.964 121.128C83.964 120.963 83.964 120.839 83.964 120.756C83.964 120.26 84.0053 119.805 84.088 119.392C84.2533 118.896 84.3773 118.441 84.46 118.028C85.452 114.308 86.2787 110.464 86.94 106.496C87.6013 102.445 87.932 98.5186 87.932 94.7159C87.932 94.0546 87.8907 93.1453 87.808 91.9879C87.7253 90.8306 87.4773 89.7559 87.064 88.7639C86.7333 87.7719 86.072 87.2759 85.08 87.2759C84.2533 87.2759 83.716 87.6066 83.468 88.2679C83.22 88.8466 82.8893 89.1359 82.476 89.1359C82.228 89.1359 82.104 89.0119 82.104 88.7639C82.104 88.5986 82.1867 88.3506 82.352 88.0199C83.096 86.4493 84.1707 84.9613 85.576 83.5559C86.9813 82.1506 88.5933 81.4479 90.412 81.4479C91.9 81.4479 92.9747 81.9439 93.636 82.9359C94.38 83.9279 94.8347 85.1266 95 86.5319C95.248 87.8546 95.372 89.0946 95.372 90.2519C95.372 95.0466 94.4213 99.8826 92.52 104.76C90.6187 109.637 88.6347 114.225 86.568 118.524C86.4853 118.855 86.1547 119.433 85.576 120.26C85.08 121.004 84.6667 121.376 84.336 121.376Z" fill="#FA0B5B"/>
</svg>