<svg viewBox="0 0 24 25" fill="none" xmlns="http://www.w3.org/2000/svg">
<path d="M12 2.83499V5.83499M12 22.835V19.835M12 14.835V10.835" stroke-width="1.5" stroke-linecap="round"/>
<path d="M13 5.83499H7.5C6.56538 5.83499 6.09808 5.83499 5.75 6.03595C5.52197 6.1676 5.33261 6.35696 5.20096 6.58499C5 6.93307 5 7.40037 5 8.33499C5 9.26961 5 9.73691 5.20096 10.085C5.33261 10.313 5.52197 10.5024 5.75 10.634C6.09808 10.835 6.56538 10.835 7.5 10.835H16.5C17.4346 10.835 17.9019 10.835 18.25 10.634C18.478 10.5024 18.6674 10.313 18.799 10.085C19 9.73691 19 9.26961 19 8.33499C19 7.40037 19 6.93307 18.799 6.58499C18.6674 6.35696 18.478 6.1676 18.25 6.03595C17.9704 5.87453 17.6139 5.84277 17 5.83652" stroke-width="1.5" stroke-linecap="round"/>
<path d="M7 17.335C7 16.4004 7 15.9331 7.20096 15.585C7.33261 15.357 7.52197 15.1676 7.75 15.036C8.09808 14.835 8.56538 14.835 9.5 14.835H14.5C15.4346 14.835 15.9019 14.835 16.25 15.036C16.478 15.1676 16.6674 15.357 16.799 15.585C17 15.9331 17 16.4004 17 17.335C17 18.2696 17 18.7369 16.799 19.085C16.6674 19.313 16.478 19.5024 16.25 19.634C15.9019 19.835 15.4346 19.835 14.5 19.835H9.5C8.56538 19.835 8.09808 19.835 7.75 19.634C7.52197 19.5024 7.33261 19.313 7.20096 19.085C7 18.7369 7 18.2696 7 17.335Z" stroke-width="1.5"/>
</svg>
