<svg width="101" height="33" viewBox="0 0 101 33" fill="none" xmlns="http://www.w3.org/2000/svg">
<path d="M11.74 22.75H17.66C17.57 22.83 17.48 22.9 17.39 22.98L13.12 26.18C11.71 27.23 9.41001 27.23 7.99001 26.18L3.71001 22.98C2.77001 22.28 2 20.73 2 19.56V12.15C2 10.93 2.93001 9.57998 4.07001 9.14998L9.05 7.27999C9.87 6.96999 11.23 6.96999 12.05 7.27999L17.02 9.14998C17.97 9.50998 18.78 10.51 19.03 11.53H11.73C11.51 11.53 11.31 11.54 11.12 11.54C9.27 11.65 8.78999 12.32 8.78999 14.43V19.86C8.79999 22.16 9.39001 22.75 11.74 22.75Z" stroke="white" stroke-width="1.5" stroke-linecap="round" stroke-linejoin="round"/>
<path d="M8.7998 16.22H21.9998" stroke="white" stroke-width="1.5" stroke-miterlimit="10" stroke-linecap="round" stroke-linejoin="round"/>
<path d="M21.9998 14.42V19.97C21.9798 22.19 21.3698 22.74 19.0598 22.74H11.7398C9.38981 22.74 8.7998 22.15 8.7998 19.84V14.41C8.7998 12.31 9.27981 11.64 11.1298 11.52C11.3198 11.52 11.5198 11.51 11.7398 11.51H19.0598C21.4098 11.52 21.9998 12.1 21.9998 14.42Z" stroke="white" stroke-width="1.5" stroke-linecap="round" stroke-linejoin="round"/>
<path d="M11.3198 20.26H12.6498" stroke="white" stroke-width="1.5" stroke-miterlimit="10" stroke-linecap="round" stroke-linejoin="round"/>
<path d="M14.75 20.26H18.02" stroke="white" stroke-width="1.5" stroke-miterlimit="10" stroke-linecap="round" stroke-linejoin="round"/>
<path d="M35.977 7.216C35.977 7.664 35.869 8.084 35.653 8.476C35.445 8.868 35.113 9.184 34.657 9.424C34.209 9.664 33.641 9.784 32.953 9.784H31.549V13H29.869V4.624H32.953C33.601 4.624 34.153 4.736 34.609 4.96C35.065 5.184 35.405 5.492 35.629 5.884C35.861 6.276 35.977 6.72 35.977 7.216ZM32.881 8.428C33.345 8.428 33.689 8.324 33.913 8.116C34.137 7.9 34.249 7.6 34.249 7.216C34.249 6.4 33.793 5.992 32.881 5.992H31.549V8.428H32.881ZM36.7378 9.652C36.7378 8.98 36.8698 8.384 37.1338 7.864C37.4058 7.344 37.7698 6.944 38.2258 6.664C38.6898 6.384 39.2058 6.244 39.7738 6.244C40.2698 6.244 40.7018 6.344 41.0698 6.544C41.4458 6.744 41.7458 6.996 41.9698 7.3V6.352H43.6618V13H41.9698V12.028C41.7538 12.34 41.4538 12.6 41.0698 12.808C40.6938 13.008 40.2578 13.108 39.7618 13.108C39.2018 13.108 38.6898 12.964 38.2258 12.676C37.7698 12.388 37.4058 11.984 37.1338 11.464C36.8698 10.936 36.7378 10.332 36.7378 9.652ZM41.9698 9.676C41.9698 9.268 41.8898 8.92 41.7298 8.632C41.5698 8.336 41.3538 8.112 41.0818 7.96C40.8098 7.8 40.5178 7.72 40.2058 7.72C39.8938 7.72 39.6058 7.796 39.3418 7.948C39.0778 8.1 38.8618 8.324 38.6938 8.62C38.5338 8.908 38.4538 9.252 38.4538 9.652C38.4538 10.052 38.5338 10.404 38.6938 10.708C38.8618 11.004 39.0778 11.232 39.3418 11.392C39.6138 11.552 39.9018 11.632 40.2058 11.632C40.5178 11.632 40.8098 11.556 41.0818 11.404C41.3538 11.244 41.5698 11.02 41.7298 10.732C41.8898 10.436 41.9698 10.084 41.9698 9.676ZM47.9066 6.244C48.4026 6.244 48.8386 6.344 49.2146 6.544C49.5906 6.736 49.8866 6.988 50.1026 7.3V6.352H51.7946V13.048C51.7946 13.664 51.6706 14.212 51.4226 14.692C51.1746 15.18 50.8026 15.564 50.3066 15.844C49.8106 16.132 49.2106 16.276 48.5066 16.276C47.5626 16.276 46.7866 16.056 46.1786 15.616C45.5786 15.176 45.2386 14.576 45.1586 13.816H46.8266C46.9146 14.12 47.1026 14.36 47.3906 14.536C47.6866 14.72 48.0426 14.812 48.4586 14.812C48.9466 14.812 49.3426 14.664 49.6466 14.368C49.9506 14.08 50.1026 13.64 50.1026 13.048V12.016C49.8866 12.328 49.5866 12.588 49.2026 12.796C48.8266 13.004 48.3946 13.108 47.9066 13.108C47.3466 13.108 46.8346 12.964 46.3706 12.676C45.9066 12.388 45.5386 11.984 45.2666 11.464C45.0026 10.936 44.8706 10.332 44.8706 9.652C44.8706 8.98 45.0026 8.384 45.2666 7.864C45.5386 7.344 45.9026 6.944 46.3586 6.664C46.8226 6.384 47.3386 6.244 47.9066 6.244ZM50.1026 9.676C50.1026 9.268 50.0226 8.92 49.8626 8.632C49.7026 8.336 49.4866 8.112 49.2146 7.96C48.9426 7.8 48.6506 7.72 48.3386 7.72C48.0266 7.72 47.7386 7.796 47.4746 7.948C47.2106 8.1 46.9946 8.324 46.8266 8.62C46.6666 8.908 46.5866 9.252 46.5866 9.652C46.5866 10.052 46.6666 10.404 46.8266 10.708C46.9946 11.004 47.2106 11.232 47.4746 11.392C47.7466 11.552 48.0346 11.632 48.3386 11.632C48.6506 11.632 48.9426 11.556 49.2146 11.404C49.4866 11.244 49.7026 11.02 49.8626 10.732C50.0226 10.436 50.1026 10.084 50.1026 9.676ZM53.0034 9.652C53.0034 8.98 53.1354 8.384 53.3994 7.864C53.6714 7.344 54.0354 6.944 54.4914 6.664C54.9554 6.384 55.4714 6.244 56.0394 6.244C56.5354 6.244 56.9674 6.344 57.3354 6.544C57.7114 6.744 58.0114 6.996 58.2354 7.3V6.352H59.9274V13H58.2354V12.028C58.0194 12.34 57.7194 12.6 57.3354 12.808C56.9594 13.008 56.5234 13.108 56.0274 13.108C55.4674 13.108 54.9554 12.964 54.4914 12.676C54.0354 12.388 53.6714 11.984 53.3994 11.464C53.1354 10.936 53.0034 10.332 53.0034 9.652ZM58.2354 9.676C58.2354 9.268 58.1554 8.92 57.9954 8.632C57.8354 8.336 57.6194 8.112 57.3474 7.96C57.0754 7.8 56.7834 7.72 56.4714 7.72C56.1594 7.72 55.8714 7.796 55.6074 7.948C55.3434 8.1 55.1274 8.324 54.9594 8.62C54.7994 8.908 54.7194 9.252 54.7194 9.652C54.7194 10.052 54.7994 10.404 54.9594 10.708C55.1274 11.004 55.3434 11.232 55.6074 11.392C55.8794 11.552 56.1674 11.632 56.4714 11.632C56.7834 11.632 57.0754 11.556 57.3474 11.404C57.6194 11.244 57.8354 11.02 57.9954 10.732C58.1554 10.436 58.2354 10.084 58.2354 9.676ZM69.8242 6.256C70.6402 6.256 71.2962 6.508 71.7922 7.012C72.2962 7.508 72.5482 8.204 72.5482 9.1V13H70.8682V9.328C70.8682 8.808 70.7362 8.412 70.4722 8.14C70.2082 7.86 69.8482 7.72 69.3922 7.72C68.9362 7.72 68.5722 7.86 68.3002 8.14C68.0362 8.412 67.9042 8.808 67.9042 9.328V13H66.2242V9.328C66.2242 8.808 66.0922 8.412 65.8282 8.14C65.5642 7.86 65.2042 7.72 64.7482 7.72C64.2842 7.72 63.9162 7.86 63.6442 8.14C63.3802 8.412 63.2482 8.808 63.2482 9.328V13H61.5682V6.352H63.2482V7.156C63.4642 6.876 63.7402 6.656 64.0762 6.496C64.4202 6.336 64.7962 6.256 65.2042 6.256C65.7242 6.256 66.1882 6.368 66.5962 6.592C67.0042 6.808 67.3202 7.12 67.5442 7.528C67.7602 7.144 68.0722 6.836 68.4802 6.604C68.8962 6.372 69.3442 6.256 69.8242 6.256ZM80.3225 9.532C80.3225 9.772 80.3065 9.988 80.2745 10.18H75.4145C75.4545 10.66 75.6225 11.036 75.9185 11.308C76.2145 11.58 76.5785 11.716 77.0105 11.716C77.6345 11.716 78.0785 11.448 78.3425 10.912H80.1545C79.9625 11.552 79.5945 12.08 79.0505 12.496C78.5065 12.904 77.8385 13.108 77.0465 13.108C76.4065 13.108 75.8305 12.968 75.3185 12.688C74.8145 12.4 74.4185 11.996 74.1305 11.476C73.8505 10.956 73.7105 10.356 73.7105 9.676C73.7105 8.988 73.8505 8.384 74.1305 7.864C74.4105 7.344 74.8025 6.944 75.3065 6.664C75.8105 6.384 76.3905 6.244 77.0465 6.244C77.6785 6.244 78.2425 6.38 78.7385 6.652C79.2425 6.924 79.6305 7.312 79.9025 7.816C80.1825 8.312 80.3225 8.884 80.3225 9.532ZM78.5825 9.052C78.5745 8.62 78.4185 8.276 78.1145 8.02C77.8105 7.756 77.4385 7.624 76.9985 7.624C76.5825 7.624 76.2305 7.752 75.9425 8.008C75.6625 8.256 75.4905 8.604 75.4265 9.052H78.5825ZM85.2327 6.256C86.0247 6.256 86.6647 6.508 87.1527 7.012C87.6407 7.508 87.8847 8.204 87.8847 9.1V13H86.2047V9.328C86.2047 8.8 86.0727 8.396 85.8087 8.116C85.5447 7.828 85.1847 7.684 84.7287 7.684C84.2647 7.684 83.8967 7.828 83.6247 8.116C83.3607 8.396 83.2287 8.8 83.2287 9.328V13H81.5487V6.352H83.2287V7.18C83.4527 6.892 83.7367 6.668 84.0807 6.508C84.4327 6.34 84.8167 6.256 85.2327 6.256ZM91.4383 7.732V10.948C91.4383 11.172 91.4903 11.336 91.5943 11.44C91.7063 11.536 91.8903 11.584 92.1463 11.584H92.9263V13H91.8703C90.4543 13 89.7463 12.312 89.7463 10.936V7.732H88.9543V6.352H89.7463V4.708H91.4383V6.352H92.9263V7.732H91.4383ZM97.0866 13.108C96.4466 13.108 95.8706 12.968 95.3586 12.688C94.8466 12.4 94.4426 11.996 94.1466 11.476C93.8586 10.956 93.7146 10.356 93.7146 9.676C93.7146 8.996 93.8626 8.396 94.1586 7.876C94.4626 7.356 94.8746 6.956 95.3946 6.676C95.9146 6.388 96.4946 6.244 97.1346 6.244C97.7746 6.244 98.3546 6.388 98.8746 6.676C99.3946 6.956 99.8026 7.356 100.099 7.876C100.403 8.396 100.555 8.996 100.555 9.676C100.555 10.356 100.399 10.956 100.087 11.476C99.7826 11.996 99.3666 12.4 98.8386 12.688C98.3186 12.968 97.7346 13.108 97.0866 13.108ZM97.0866 11.644C97.3906 11.644 97.6746 11.572 97.9386 11.428C98.2106 11.276 98.4266 11.052 98.5866 10.756C98.7466 10.46 98.8266 10.1 98.8266 9.676C98.8266 9.044 98.6586 8.56 98.3226 8.224C97.9946 7.88 97.5906 7.708 97.1106 7.708C96.6306 7.708 96.2266 7.88 95.8986 8.224C95.5786 8.56 95.4186 9.044 95.4186 9.676C95.4186 10.308 95.5746 10.796 95.8866 11.14C96.2066 11.476 96.6066 11.644 97.0866 11.644Z" fill="white"/>
<path d="M29.6964 22.6V21.77H31.5764V29H30.6564V22.6H29.6964ZM33.1395 25.31C33.1395 24.1633 33.3262 23.27 33.6995 22.63C34.0729 21.9833 34.7262 21.66 35.6595 21.66C36.5862 21.66 37.2362 21.9833 37.6095 22.63C37.9829 23.27 38.1695 24.1633 38.1695 25.31C38.1695 26.4767 37.9829 27.3833 37.6095 28.03C37.2362 28.6767 36.5862 29 35.6595 29C34.7262 29 34.0729 28.6767 33.6995 28.03C33.3262 27.3833 33.1395 26.4767 33.1395 25.31ZM37.2695 25.31C37.2695 24.73 37.2295 24.24 37.1495 23.84C37.0762 23.4333 36.9195 23.1067 36.6795 22.86C36.4462 22.6133 36.1062 22.49 35.6595 22.49C35.2062 22.49 34.8595 22.6133 34.6195 22.86C34.3862 23.1067 34.2295 23.4333 34.1495 23.84C34.0762 24.24 34.0395 24.73 34.0395 25.31C34.0395 25.91 34.0762 26.4133 34.1495 26.82C34.2295 27.2267 34.3862 27.5533 34.6195 27.8C34.8595 28.0467 35.2062 28.17 35.6595 28.17C36.1062 28.17 36.4462 28.0467 36.6795 27.8C36.9195 27.5533 37.0762 27.2267 37.1495 26.82C37.2295 26.4133 37.2695 25.91 37.2695 25.31ZM39.4188 25.31C39.4188 24.1633 39.6055 23.27 39.9788 22.63C40.3522 21.9833 41.0055 21.66 41.9388 21.66C42.8655 21.66 43.5155 21.9833 43.8888 22.63C44.2622 23.27 44.4488 24.1633 44.4488 25.31C44.4488 26.4767 44.2622 27.3833 43.8888 28.03C43.5155 28.6767 42.8655 29 41.9388 29C41.0055 29 40.3522 28.6767 39.9788 28.03C39.6055 27.3833 39.4188 26.4767 39.4188 25.31ZM43.5488 25.31C43.5488 24.73 43.5088 24.24 43.4288 23.84C43.3555 23.4333 43.1988 23.1067 42.9588 22.86C42.7255 22.6133 42.3855 22.49 41.9388 22.49C41.4855 22.49 41.1388 22.6133 40.8988 22.86C40.6655 23.1067 40.5088 23.4333 40.4288 23.84C40.3555 24.24 40.3188 24.73 40.3188 25.31C40.3188 25.91 40.3555 26.4133 40.4288 26.82C40.5088 27.2267 40.6655 27.5533 40.8988 27.8C41.1388 28.0467 41.4855 28.17 41.9388 28.17C42.3855 28.17 42.7255 28.0467 42.9588 27.8C43.1988 27.5533 43.3555 27.2267 43.4288 26.82C43.5088 26.4133 43.5488 25.91 43.5488 25.31ZM45.4981 23.4C45.4981 22.9467 45.6348 22.5867 45.9081 22.32C46.1815 22.0467 46.5315 21.91 46.9581 21.91C47.3848 21.91 47.7348 22.0467 48.0081 22.32C48.2815 22.5867 48.4181 22.9467 48.4181 23.4C48.4181 23.86 48.2815 24.2267 48.0081 24.5C47.7348 24.7667 47.3848 24.9 46.9581 24.9C46.5315 24.9 46.1815 24.7667 45.9081 24.5C45.6348 24.2267 45.4981 23.86 45.4981 23.4ZM51.3381 22.02L47.2881 29H46.3881L50.4381 22.02H51.3381ZM46.9581 22.47C46.7315 22.47 46.5515 22.55 46.4181 22.71C46.2915 22.8633 46.2281 23.0933 46.2281 23.4C46.2281 23.7067 46.2915 23.94 46.4181 24.1C46.5515 24.26 46.7315 24.34 46.9581 24.34C47.1848 24.34 47.3648 24.26 47.4981 24.1C47.6315 23.9333 47.6981 23.7 47.6981 23.4C47.6981 23.0933 47.6315 22.8633 47.4981 22.71C47.3648 22.55 47.1848 22.47 46.9581 22.47ZM49.3281 27.62C49.3281 27.16 49.4648 26.7967 49.7381 26.53C50.0115 26.2567 50.3615 26.12 50.7881 26.12C51.2148 26.12 51.5615 26.2567 51.8281 26.53C52.1015 26.7967 52.2381 27.16 52.2381 27.62C52.2381 28.0733 52.1015 28.4367 51.8281 28.71C51.5615 28.9833 51.2148 29.12 50.7881 29.12C50.3615 29.12 50.0115 28.9867 49.7381 28.72C49.4648 28.4467 49.3281 28.08 49.3281 27.62ZM50.7781 26.69C50.5515 26.69 50.3715 26.77 50.2381 26.93C50.1048 27.0833 50.0381 27.3133 50.0381 27.62C50.0381 27.92 50.1048 28.15 50.2381 28.31C50.3715 28.4633 50.5515 28.54 50.7781 28.54C51.0048 28.54 51.1848 28.4633 51.3181 28.31C51.4515 28.15 51.5181 27.92 51.5181 27.62C51.5181 27.3133 51.4515 27.0833 51.3181 26.93C51.1848 26.77 51.0048 26.69 50.7781 26.69ZM58.312 29.07C57.852 29.07 57.4387 28.99 57.072 28.83C56.712 28.6633 56.4287 28.4367 56.222 28.15C56.0154 27.8567 55.9087 27.52 55.902 27.14H56.872C56.9054 27.4667 57.0387 27.7433 57.272 27.97C57.512 28.19 57.8587 28.3 58.312 28.3C58.7454 28.3 59.0854 28.1933 59.332 27.98C59.5854 27.76 59.712 27.48 59.712 27.14C59.712 26.8733 59.6387 26.6567 59.492 26.49C59.3454 26.3233 59.162 26.1967 58.942 26.11C58.722 26.0233 58.4254 25.93 58.052 25.83C57.592 25.71 57.222 25.59 56.942 25.47C56.6687 25.35 56.432 25.1633 56.232 24.91C56.0387 24.65 55.942 24.3033 55.942 23.87C55.942 23.49 56.0387 23.1533 56.232 22.86C56.4254 22.5667 56.6954 22.34 57.042 22.18C57.3954 22.02 57.7987 21.94 58.252 21.94C58.9054 21.94 59.4387 22.1033 59.852 22.43C60.272 22.7567 60.5087 23.19 60.562 23.73H59.562C59.5287 23.4633 59.3887 23.23 59.142 23.03C58.8954 22.8233 58.5687 22.72 58.162 22.72C57.782 22.72 57.472 22.82 57.232 23.02C56.992 23.2133 56.872 23.4867 56.872 23.84C56.872 24.0933 56.942 24.3 57.082 24.46C57.2287 24.62 57.4054 24.7433 57.612 24.83C57.8254 24.91 58.122 25.0033 58.502 25.11C58.962 25.2367 59.332 25.3633 59.612 25.49C59.892 25.61 60.132 25.8 60.332 26.06C60.532 26.3133 60.632 26.66 60.632 27.1C60.632 27.44 60.542 27.76 60.362 28.06C60.182 28.36 59.9154 28.6033 59.562 28.79C59.2087 28.9767 58.792 29.07 58.312 29.07ZM66.9712 26.05C66.9712 26.2233 66.9612 26.4067 66.9412 26.6H62.5612C62.5945 27.14 62.7778 27.5633 63.1112 27.87C63.4512 28.17 63.8612 28.32 64.3412 28.32C64.7345 28.32 65.0612 28.23 65.3212 28.05C65.5878 27.8633 65.7745 27.6167 65.8812 27.31H66.8612C66.7145 27.8367 66.4212 28.2667 65.9812 28.6C65.5412 28.9267 64.9945 29.09 64.3412 29.09C63.8212 29.09 63.3545 28.9733 62.9412 28.74C62.5345 28.5067 62.2145 28.1767 61.9812 27.75C61.7478 27.3167 61.6312 26.8167 61.6312 26.25C61.6312 25.6833 61.7445 25.1867 61.9712 24.76C62.1978 24.3333 62.5145 24.0067 62.9212 23.78C63.3345 23.5467 63.8078 23.43 64.3412 23.43C64.8612 23.43 65.3212 23.5433 65.7212 23.77C66.1212 23.9967 66.4278 24.31 66.6412 24.71C66.8612 25.1033 66.9712 25.55 66.9712 26.05ZM66.0312 25.86C66.0312 25.5133 65.9545 25.2167 65.8012 24.97C65.6478 24.7167 65.4378 24.5267 65.1712 24.4C64.9112 24.2667 64.6212 24.2 64.3012 24.2C63.8412 24.2 63.4478 24.3467 63.1212 24.64C62.8012 24.9333 62.6178 25.34 62.5712 25.86H66.0312ZM70.4323 23.43C70.9057 23.43 71.319 23.5333 71.6723 23.74C72.0323 23.9467 72.299 24.2067 72.4723 24.52V23.52H73.3923V29.12C73.3923 29.62 73.2857 30.0633 73.0723 30.45C72.859 30.8433 72.5523 31.15 72.1523 31.37C71.759 31.59 71.299 31.7 70.7723 31.7C70.0523 31.7 69.4523 31.53 68.9723 31.19C68.4923 30.85 68.209 30.3867 68.1223 29.8H69.0223C69.1223 30.1333 69.329 30.4 69.6423 30.6C69.9557 30.8067 70.3323 30.91 70.7723 30.91C71.2723 30.91 71.679 30.7533 71.9923 30.44C72.3123 30.1267 72.4723 29.6867 72.4723 29.12V27.97C72.2923 28.29 72.0257 28.5567 71.6723 28.77C71.319 28.9833 70.9057 29.09 70.4323 29.09C69.9457 29.09 69.5023 28.97 69.1023 28.73C68.709 28.49 68.399 28.1533 68.1723 27.72C67.9457 27.2867 67.8323 26.7933 67.8323 26.24C67.8323 25.68 67.9457 25.19 68.1723 24.77C68.399 24.3433 68.709 24.0133 69.1023 23.78C69.5023 23.5467 69.9457 23.43 70.4323 23.43ZM72.4723 26.25C72.4723 25.8367 72.389 25.4767 72.2223 25.17C72.0557 24.8633 71.829 24.63 71.5423 24.47C71.2623 24.3033 70.9523 24.22 70.6123 24.22C70.2723 24.22 69.9623 24.3 69.6823 24.46C69.4023 24.62 69.179 24.8533 69.0123 25.16C68.8457 25.4667 68.7623 25.8267 68.7623 26.24C68.7623 26.66 68.8457 27.0267 69.0123 27.34C69.179 27.6467 69.4023 27.8833 69.6823 28.05C69.9623 28.21 70.2723 28.29 70.6123 28.29C70.9523 28.29 71.2623 28.21 71.5423 28.05C71.829 27.8833 72.0557 27.6467 72.2223 27.34C72.389 27.0267 72.4723 26.6633 72.4723 26.25ZM79.7902 23.52V29H78.8802V28.19C78.7068 28.47 78.4635 28.69 78.1502 28.85C77.8435 29.0033 77.5035 29.08 77.1302 29.08C76.7035 29.08 76.3202 28.9933 75.9802 28.82C75.6402 28.64 75.3702 28.3733 75.1702 28.02C74.9768 27.6667 74.8802 27.2367 74.8802 26.73V23.52H75.7802V26.61C75.7802 27.15 75.9168 27.5667 76.1902 27.86C76.4635 28.1467 76.8368 28.29 77.3102 28.29C77.7968 28.29 78.1802 28.14 78.4602 27.84C78.7402 27.54 78.8802 27.1033 78.8802 26.53V23.52H79.7902ZM82.2366 24.41C82.3966 24.0967 82.6233 23.8533 82.9166 23.68C83.2166 23.5067 83.58 23.42 84.0066 23.42V24.36H83.7666C82.7466 24.36 82.2366 24.9133 82.2366 26.02V29H81.3266V23.52H82.2366V24.41ZM87.4471 29.09C86.9338 29.09 86.4671 28.9733 86.0471 28.74C85.6338 28.5067 85.3071 28.1767 85.0671 27.75C84.8338 27.3167 84.7171 26.8167 84.7171 26.25C84.7171 25.69 84.8371 25.1967 85.0771 24.77C85.3238 24.3367 85.6571 24.0067 86.0771 23.78C86.4971 23.5467 86.9671 23.43 87.4871 23.43C88.0071 23.43 88.4771 23.5467 88.8971 23.78C89.3171 24.0067 89.6471 24.3333 89.8871 24.76C90.1338 25.1867 90.2571 25.6833 90.2571 26.25C90.2571 26.8167 90.1304 27.3167 89.8771 27.75C89.6304 28.1767 89.2938 28.5067 88.8671 28.74C88.4404 28.9733 87.9671 29.09 87.4471 29.09ZM87.4471 28.29C87.7738 28.29 88.0804 28.2133 88.3671 28.06C88.6538 27.9067 88.8838 27.6767 89.0571 27.37C89.2371 27.0633 89.3271 26.69 89.3271 26.25C89.3271 25.81 89.2404 25.4367 89.0671 25.13C88.8938 24.8233 88.6671 24.5967 88.3871 24.45C88.1071 24.2967 87.8038 24.22 87.4771 24.22C87.1438 24.22 86.8371 24.2967 86.5571 24.45C86.2838 24.5967 86.0638 24.8233 85.8971 25.13C85.7304 25.4367 85.6471 25.81 85.6471 26.25C85.6471 26.6967 85.7271 27.0733 85.8871 27.38C86.0538 27.6867 86.2738 27.9167 86.5471 28.07C86.8204 28.2167 87.1204 28.29 87.4471 28.29Z" fill="white"/>
</svg>
