<svg viewBox="0 0 24 25" fill="none" xmlns="http://www.w3.org/2000/svg">
<path d="M14.3601 4.91365L15.2869 3.98677C16.8226 2.45106 19.3125 2.45106 20.8482 3.98677C22.3839 5.52247 22.3839 8.01234 20.8482 9.54805L19.9213 10.4749M14.3601 4.91365C14.3601 4.91365 14.4759 6.88327 16.2138 8.62117C17.9517 10.3591 19.9213 10.4749 19.9213 10.4749M14.3601 4.91365L12 7.27371M19.9213 10.4749L14.6607 15.7356L11.5613 18.835L11.4001 18.9962C10.8229 19.5733 10.5344 19.8619 10.2162 20.1101C9.84082 20.4029 9.43469 20.6539 9.00498 20.8587C8.6407 21.0323 8.25352 21.1613 7.47918 21.4194L4.19792 22.5132M4.19792 22.5132L3.39584 22.7806C3.01478 22.9076 2.59466 22.8084 2.31063 22.5244C2.0266 22.2403 1.92743 21.8202 2.05445 21.4392L2.32181 20.6371M4.19792 22.5132L2.32181 20.6371M2.32181 20.6371L3.41556 17.3558C3.67368 16.5815 3.80273 16.1943 3.97634 15.83C4.18114 15.4003 4.43213 14.9942 4.7249 14.6188C4.97308 14.3006 5.26166 14.0121 5.83882 13.4349L8.5 10.7737" stroke-width="1.5" stroke-linecap="round"/>
</svg>
