<svg viewBox="0 0 38 24" fill="none" xmlns="http://www.w3.org/2000/svg">
  <g clip-path="url(#clip0_632_610)">
    <path
      opacity="0.5"
      d="M35 0H3C2.20435 0 1.44129 0.31607 0.87868 0.87868C0.31607 1.44129 0 2.20435 0 3L0 21C0 21.7956 0.31607 22.5587 0.87868 23.1213C1.44129 23.6839 2.20435 24 3 24H35C35.7957 24 36.5587 23.6839 37.1213 23.1213C37.6839 22.5587 38 21.7956 38 21V3C38 2.20435 37.6839 1.44129 37.1213 0.87868C36.5587 0.31607 35.7957 0 35 0Z"
      stroke="#47474D"
    />
    <path
      d="M35 1C35.5304 1 36.0391 1.21071 36.4142 1.58579C36.7893 1.96086 37 2.46957 37 3V21C37 21.5304 36.7893 22.0391 36.4142 22.4142C36.0391 22.7893 35.5304 23 35 23H3C2.46957 23 1.96086 22.7893 1.58579 22.4142C1.21071 22.0391 1 21.5304 1 21V3C1 2.46957 1.21071 1.96086 1.58579 1.58579C1.96086 1.21071 2.46957 1 3 1H35Z"
      fill="white" />
    <path
      d="M12.5101 12C12.5079 11.742 12.5572 11.4863 12.6551 11.2476C12.7529 11.0089 12.8974 10.7922 13.0801 10.61L14.5301 9.17C14.5439 9.14917 14.5638 9.13317 14.5871 9.1242C14.6104 9.11524 14.6359 9.11377 14.6601 9.12H15.0501C15.2765 9.10502 15.5037 9.10502 15.7301 9.12C16.0149 9.16769 16.2774 9.30419 16.4801 9.51L18.4101 11.44C18.495 11.528 18.5967 11.598 18.7092 11.6458C18.8218 11.6936 18.9428 11.7183 19.0651 11.7183C19.1874 11.7183 19.3084 11.6936 19.4209 11.6458C19.5334 11.598 19.6352 11.528 19.7201 11.44C20.1201 11.06 20.5001 10.67 20.8801 10.29L21.6901 9.49C21.8123 9.36421 21.9584 9.26406 22.1198 9.19538C22.2812 9.1267 22.4547 9.09087 22.6301 9.09H23.2901C23.4101 9.09 23.4701 9.09 23.5401 9.19C24.0201 9.68 24.5401 10.19 24.9801 10.64C25.3078 11.0143 25.4843 11.4973 25.475 11.9947C25.4658 12.4921 25.2715 12.9681 24.9301 13.33L23.4701 14.8C23.4543 14.8122 23.435 14.8188 23.4151 14.8188C23.3952 14.8188 23.3758 14.8122 23.3601 14.8H23.2301C22.9701 14.8 22.7201 14.8 22.4601 14.8C22.1723 14.773 21.9032 14.6456 21.7001 14.44L19.7801 12.52C19.6289 12.3671 19.4324 12.2671 19.2199 12.2346C19.0073 12.2022 18.79 12.2392 18.6001 12.34C18.5303 12.3812 18.4664 12.4317 18.4101 12.49L16.5001 14.45C16.372 14.5867 16.2171 14.6954 16.045 14.7694C15.8729 14.8434 15.6874 14.8811 15.5001 14.88C15.2401 14.88 14.9901 14.88 14.7301 14.88C14.6838 14.8859 14.6368 14.8787 14.5944 14.8593C14.552 14.8398 14.5158 14.8089 14.4901 14.77C14.0301 14.32 13.5701 13.86 13.1201 13.4C12.928 13.2208 12.7748 13.0041 12.6699 12.7633C12.565 12.5224 12.5106 12.2627 12.5101 12Z"
      fill="#00BCAD" />
    <path
      d="M15.1399 8.56001L15.1999 8.50001C16.0099 7.69001 16.8099 6.88001 17.6199 6.08001C17.9913 5.72836 18.4834 5.53238 18.9949 5.53238C19.5064 5.53238 19.9985 5.72836 20.3699 6.08001C21.1899 6.89001 22.0099 7.71001 22.8199 8.53001C22.8412 8.54128 22.8586 8.5587 22.8699 8.58001H22.6499C22.337 8.57318 22.0274 8.64541 21.7499 8.79001C21.5802 8.87935 21.4251 8.994 21.2899 9.13001L19.3699 11C19.3342 11.0421 19.2898 11.076 19.2397 11.0992C19.1896 11.1224 19.1351 11.1344 19.0799 11.1344C19.0247 11.1344 18.9702 11.1224 18.9201 11.0992C18.87 11.076 18.8256 11.0421 18.7899 11C18.1499 10.36 17.5099 9.71001 16.8599 9.07001C16.6852 8.89548 16.4778 8.75707 16.2496 8.6627C16.0214 8.56833 15.7768 8.51984 15.5299 8.52001L15.1399 8.56001Z"
      fill="#00BCAD" />
    <path
      d="M22.8699 15.46C22.8699 15.46 22.8199 15.46 22.8099 15.46L20.3899 17.87C20.017 18.2305 19.5186 18.432 18.9999 18.432C18.4812 18.432 17.9828 18.2305 17.6099 17.87L15.2099 15.46H15.1399C15.1523 15.4538 15.166 15.4506 15.1799 15.4506C15.1938 15.4506 15.2075 15.4538 15.2199 15.46C15.4723 15.4901 15.7275 15.4901 15.9799 15.46C16.3086 15.3776 16.6091 15.2084 16.8499 14.97L18.7799 13C18.8165 12.9559 18.8623 12.9205 18.9142 12.8961C18.966 12.8718 19.0226 12.8592 19.0799 12.8592C19.1372 12.8592 19.1937 12.8718 19.2456 12.8961C19.2974 12.9205 19.3433 12.9559 19.3799 13L21.2499 14.87C21.4328 15.0641 21.6548 15.2172 21.9014 15.3189C22.1479 15.4206 22.4133 15.4687 22.6799 15.46H22.8499H22.8699Z"
      fill="#00BCAD" />
  </g>
  <defs>
    <clipPath id="clip0_632_610">
      <rect width="38" height="24" fill="white" />
    </clipPath>
  </defs>
</svg>