<svg viewBox="0 0 37 36" fill="none" xmlns="http://www.w3.org/2000/svg">
<path d="M2.5 8.5H4.67501C5.97002 8.5 7.00047 9.56972 6.98296 10.8375M26.925 14.6L26.25 23.975C26.1125 25.7625 24.5375 27.2375 22.7375 27.2375H9.42499C7.37499 27.2375 5.7625 25.4875 5.9375 23.45L6.975 11C6.97958 10.9455 6.98222 10.8913 6.98296 10.8375M6.98296 10.8375H7.27501H22.5" stroke-width="1.5" stroke-miterlimit="10" stroke-linecap="round" stroke-linejoin="round"/>
<path d="M20.3125 33.5C21.1754 33.5 21.875 32.8004 21.875 31.9375C21.875 31.0746 21.1754 30.375 20.3125 30.375C19.4496 30.375 18.75 31.0746 18.75 31.9375C18.75 32.8004 19.4496 33.5 20.3125 33.5Z" stroke-width="1.5" stroke-miterlimit="10" stroke-linecap="round" stroke-linejoin="round"/>
<path d="M10.3125 33.5C11.1754 33.5 11.875 32.8004 11.875 31.9375C11.875 31.0746 11.1754 30.375 10.3125 30.375C9.44956 30.375 8.75 31.0746 8.75 31.9375C8.75 32.8004 9.44956 33.5 10.3125 33.5Z" stroke-width="1.5" stroke-miterlimit="10" stroke-linecap="round" stroke-linejoin="round"/>
<path d="M11.25 16H26.25" stroke-width="1.5" stroke-miterlimit="10" stroke-linecap="round" stroke-linejoin="round"/>
<path d="M24.4931 9.16277L23.5431 8.21276C23.1556 7.82526 23.1556 7.18775 23.5431 6.80025L24.4931 5.85024C24.6556 5.68774 24.7868 5.36899 24.7868 5.14399V3.80022C24.7868 3.25022 25.2368 2.80024 25.7868 2.80024H27.1306C27.3556 2.80024 27.6743 2.66901 27.8368 2.50651L28.7868 1.55649C29.1743 1.16899 29.8118 1.16899 30.1993 1.55649L31.1493 2.50651C31.3118 2.66901 31.6306 2.80024 31.8556 2.80024H33.1993C33.7493 2.80024 34.1993 3.25022 34.1993 3.80022V5.14399C34.1993 5.36899 34.3306 5.68774 34.4931 5.85024L35.4431 6.80025C35.8306 7.18775 35.8306 7.82526 35.4431 8.21276L34.4931 9.16277C34.3306 9.32527 34.1993 9.64403 34.1993 9.86903V11.2127C34.1993 11.7627 33.7493 12.2128 33.1993 12.2128H31.8556C31.6306 12.2128 31.3118 12.344 31.1493 12.5065L30.1993 13.4565C29.8118 13.844 29.1743 13.844 28.7868 13.4565L27.8368 12.5065C27.6743 12.344 27.3556 12.2128 27.1306 12.2128H25.7868C25.2368 12.2128 24.7868 11.7627 24.7868 11.2127V9.86903C24.7868 9.63778 24.6556 9.31902 24.4931 9.16277Z" stroke-linecap="round" stroke-linejoin="round"/>
<path d="M27.625 9.375L31.375 5.625" stroke-linecap="round" stroke-linejoin="round"/>
<path d="M31.0591 9.0625H31.0647" stroke-linecap="round" stroke-linejoin="round"/>
<path d="M27.9341 5.9375H27.9397" stroke-linecap="round" stroke-linejoin="round"/>
</svg>
